<?xml version="1.0" encoding="utf-8"?>
<!-- Generator: Adobe Illustrator 23.0.1, SVG Export Plug-In . SVG Version: 6.00 Build 0)  -->
<svg version="1.1" id="Layer_1" xmlns="http://www.w3.org/2000/svg" xmlns:xlink="http://www.w3.org/1999/xlink" x="0px" y="0px"
	 viewBox="0 0 100 100" style="enable-background:new 0 0 100 100;" xml:space="preserve">
<style type="text/css">
	.st0{fill:#FE8C77;}
</style>
<g>
	<path class="st0" d="M68.6,47.6c1.3-2.7,2.1-5.8,2.1-9c0-11.4-9.3-20.7-20.7-20.7s-20.7,9.3-20.7,20.7c0,3.2,0.8,6.3,2.1,9
		c0,0,0.4,0.9,0.5,1L50,82.1l17.9-33C68.1,48.7,68.6,47.6,68.6,47.6z M50,28.3c5.7,0,10.3,4.6,10.3,10.3S55.7,49,50,49
		s-10.3-4.6-10.3-10.3S44.3,28.3,50,28.3z"/>
</g>
</svg>
